<mxfile host="app.diagrams.net" modified="2024-02-17T07:56:10.918Z" agent="Mozilla/5.0 (Windows NT 10.0; Win64; x64) AppleWebKit/537.36 (KHTML, like Gecko) Chrome/121.0.0.0 Safari/537.36" etag="huAk7l95Vz05pMJq0_JC" version="23.1.5" type="github">
  <diagram name="Page-1" id="Olds2s3BmA-c5fkR2qyL">
    <mxGraphModel dx="1400" dy="804" grid="0" gridSize="10" guides="1" tooltips="1" connect="1" arrows="1" fold="1" page="1" pageScale="1" pageWidth="850" pageHeight="1100" math="0" shadow="0">
      <root>
        <mxCell id="0" />
        <mxCell id="1" parent="0" />
        <mxCell id="_pi5znQff69B0v0bjKl9-21" value="" style="ellipse;shape=doubleEllipse;html=1;dashed=0;whiteSpace=wrap;aspect=fixed;" vertex="1" parent="1">
          <mxGeometry x="328" y="71" width="120" height="120" as="geometry" />
        </mxCell>
        <mxCell id="_pi5znQff69B0v0bjKl9-22" value="" style="ellipse;whiteSpace=wrap;html=1;aspect=fixed;fillColor=#171717;" vertex="1" parent="1">
          <mxGeometry x="338" y="81" width="100" height="100" as="geometry" />
        </mxCell>
        <mxCell id="_pi5znQff69B0v0bjKl9-23" value="&lt;font style=&quot;font-size: 36px;&quot;&gt;Start&lt;br&gt;&lt;/font&gt;" style="text;html=1;align=center;verticalAlign=middle;resizable=0;points=[];autosize=1;strokeColor=none;fillColor=none;" vertex="1" parent="1">
          <mxGeometry x="462" y="106" width="94" height="55" as="geometry" />
        </mxCell>
        <mxCell id="_pi5znQff69B0v0bjKl9-24" value="&lt;font style=&quot;font-size: 36px;&quot;&gt;, d(if)&lt;br&gt;&lt;/font&gt;" style="text;html=1;align=center;verticalAlign=middle;resizable=0;points=[];autosize=1;strokeColor=none;fillColor=none;" vertex="1" parent="1">
          <mxGeometry x="556" y="106" width="100" height="55" as="geometry" />
        </mxCell>
        <mxCell id="_pi5znQff69B0v0bjKl9-25" value="" style="ellipse;whiteSpace=wrap;html=1;aspect=fixed;fillColor=#171717;" vertex="1" parent="1">
          <mxGeometry x="132" y="248" width="100" height="100" as="geometry" />
        </mxCell>
        <mxCell id="_pi5znQff69B0v0bjKl9-26" value="&lt;font style=&quot;font-size: 36px;&quot;&gt;d(for)&lt;br&gt;&lt;/font&gt;" style="text;html=1;align=center;verticalAlign=middle;resizable=0;points=[];autosize=1;strokeColor=none;fillColor=none;" vertex="1" parent="1">
          <mxGeometry x="241" y="270.5" width="104" height="55" as="geometry" />
        </mxCell>
        <mxCell id="_pi5znQff69B0v0bjKl9-27" value="" style="ellipse;whiteSpace=wrap;html=1;aspect=fixed;fillColor=#171717;" vertex="1" parent="1">
          <mxGeometry x="35" y="445" width="100" height="100" as="geometry" />
        </mxCell>
        <mxCell id="_pi5znQff69B0v0bjKl9-28" value="&lt;font style=&quot;font-size: 36px;&quot;&gt;&lt;br&gt;d(if)&lt;br&gt;&lt;/font&gt;" style="text;html=1;align=center;verticalAlign=middle;resizable=0;points=[];autosize=1;strokeColor=none;fillColor=none;" vertex="1" parent="1">
          <mxGeometry x="142" y="446" width="80" height="98" as="geometry" />
        </mxCell>
        <mxCell id="_pi5znQff69B0v0bjKl9-29" value="" style="ellipse;shape=doubleEllipse;html=1;dashed=0;whiteSpace=wrap;aspect=fixed;" vertex="1" parent="1">
          <mxGeometry x="418" y="761" width="120" height="120" as="geometry" />
        </mxCell>
        <mxCell id="_pi5znQff69B0v0bjKl9-30" value="" style="ellipse;whiteSpace=wrap;html=1;aspect=fixed;fillColor=#171717;" vertex="1" parent="1">
          <mxGeometry x="428" y="771" width="100" height="100" as="geometry" />
        </mxCell>
      </root>
    </mxGraphModel>
  </diagram>
</mxfile>
